<svg version="1.1" viewBox="0.0 0.0 500.0 300.0" fill="none" stroke="none" stroke-linecap="square"
     stroke-miterlimit="10"
     xmlns="http://www.w3.org/2000/svg"><clipPath id="geb6d959668_0_3.0"><path d="m0 0l500.0 0l0 300.0l-500.0 0l0 -300.0z" clip-rule="nonzero"/></clipPath><g clip-path="url(#geb6d959668_0_3.0)"><path fill="#ffffff" d="m0 0l500.0 0l0 300.0l-500.0 0z" fill-rule="evenodd"/><path fill="#000000" fill-opacity="0.0" d="m-7.874016E-7 67.220474l500.0 0l0 199.27559l-500.0 0z" fill-rule="evenodd"/><path fill="#595959" d="m27.63321 191.68202q-3.9375 0 -8.90625 -0.6875q-2.71875 -0.34375 -3.734376 -1.421875q-1.015625 -1.09375 -0.890625 -3.53125q0.484375 -6.734375 2.250001 -16.625q1.765625 -9.90625 4.28125 -19.078125q0.484375 -1.703125 1.90625 -2.375q1.421875 -0.6875 3.734375 -0.6875q4.15625 0 4.15625 2.3125q0 0.953125 -0.40625 2.171875q-1.765625 5.4375 -3.546875 14.59375q-1.765625 9.140625 -2.515625 17.4375q2.046875 0.203125 4.625 0.203125q11.90625 0 17.78125 -7.203125q5.890625 -7.21875 5.890625 -19.25q0 -8.09375 -4.625 -12.515625q-4.625 -4.421875 -13.0625 -4.421875q-5.4375 0 -10.78125 1.703125q-5.328125 1.703125 -9.609376 4.484375q-0.890625 0.625 -1.90625 0.625q-1.15625 0 -1.84375 -0.984375q-0.671875 -1.0 -0.671875 -2.421875q0 -1.625 0.53125 -2.671875q0.546875 -1.0625 1.84375 -1.953125q4.687501 -3.1875 11.015626 -4.859375q6.328125 -1.671875 12.171875 -1.671875q8.296875 0 14.34375 2.890625q6.0625 2.890625 9.328125 8.46875q3.265625 5.578125 3.265625 13.46875q0 10.265625 -4.09375 17.921875q-4.078125 7.640625 -11.90625 11.859375q-7.8125 4.21875 -18.625 4.21875zm73.84807 -21.21875q0.890625 0 1.359375 0.890625q0.484375 0.875 0.484375 2.234375q0 3.265625 -1.96875 3.875q-4.078125 1.4375 -8.984375 1.640625q-1.28125 5.703125 -5.09375 9.140625q-3.8125 3.4375 -8.640625 3.4375q-4.078125 0 -6.96875 -1.96875q-2.890625 -1.984375 -4.390625 -5.234375q-1.484375 -3.265625 -1.484375 -7.078125q0 -5.171875 1.96875 -9.21875q1.96875 -4.046875 5.4375 -6.3125q3.46875 -2.28125 7.6875 -2.28125q5.171875 0 8.328125 3.578125q3.15625 3.5625 3.703125 8.796875q3.203125 -0.203125 7.609375 -1.359375q0.546875 -0.140625 0.953125 -0.140625zm-22.296875 14.0q2.171875 0 3.765625 -1.765625q1.609375 -1.765625 2.15625 -5.09375q-2.109375 -1.421875 -3.234375 -3.734375q-1.125 -2.3125 -1.125 -4.90625q0 -1.078125 0.203125 -2.171875l-0.34375 0q-2.71875 0 -4.515625 2.625q-1.796875 2.609375 -1.796875 7.375q0 3.734375 1.453125 5.703125q1.46875 1.96875 3.4375 1.96875zm23.121155 7.21875q-2.578125 0 -3.640625 -2.71875q-1.046875 -2.71875 -1.046875 -8.703125q0 -8.84375 2.515625 -16.796875q0.609375 -1.984375 2.0 -2.890625q1.390625 -0.921875 3.90625 -0.921875q1.359375 0 1.90625 0.34375q0.546875 0.328125 0.546875 1.28125q0 1.09375 -1.015625 4.90625q-0.6875 2.71875 -1.09375 4.765625q-0.40625 2.03125 -0.6875 5.015625q2.25 -5.84375 5.03125 -9.515625q2.796875 -3.671875 5.484375 -5.234375q2.6875 -1.5625 4.921875 -1.5625q4.421875 0 4.421875 4.421875q0 0.875 -0.609375 4.28125q-0.546875 2.71875 -0.546875 3.40625q0 2.375 1.703125 2.375q1.90625 0 4.890625 -3.0q0.890625 -0.875 1.84375 -0.875q0.890625 0 1.390625 0.78125q0.515625 0.78125 0.515625 2.078125q0 2.515625 -1.359375 3.9375q-1.90625 1.96875 -4.46875 3.375q-2.546875 1.390625 -5.390625 1.390625q-3.609375 0 -5.484375 -1.828125q-1.859375 -1.84375 -1.859375 -4.96875q0 -1.03125 0.203125 -2.046875q0.125 -1.359375 0.125 -1.84375q0 -1.078125 -0.734375 -1.078125q-1.03125 0 -2.703125 2.28125q-1.65625 2.265625 -3.296875 6.015625q-1.625 3.734375 -2.640625 7.890625q-0.75 3.1875 -1.734375 4.3125q-0.984375 1.125 -3.09375 1.125zm35.018158 -36.515625q-2.859375 0 -4.296875 -1.328125q-1.421875 -1.328125 -1.421875 -3.703125q0 -2.390625 1.875 -3.984375q1.875 -1.59375 4.65625 -1.59375q2.515625 0 4.078125 1.21875q1.5625 1.21875 1.5625 3.46875q0 2.71875 -1.765625 4.328125q-1.765625 1.59375 -4.6875 1.59375zm-0.546875 36.515625q-4.421875 0 -6.421875 -3.125q-2.0 -3.140625 -2.0 -8.296875q0 -3.0625 0.78125 -7.859375q0.78125 -4.796875 2.0 -8.9375q0.609375 -2.1875 1.625 -3.0q1.03125 -0.8125 3.265625 -0.8125q3.46875 0 3.46875 2.3125q0 1.703125 -1.28125 7.890625q-1.640625 7.46875 -1.640625 10.125q0 2.046875 0.546875 3.140625q0.546875 1.078125 1.828125 1.078125q1.234375 0 3.0625 -1.703125q1.84375 -1.703125 4.90625 -5.375q0.8125 -0.9375 1.828125 -0.9375q0.890625 0 1.390625 0.8125q0.515625 0.8125 0.515625 2.234375q0 2.71875 -1.296875 4.21875q-6.734375 8.234375 -12.578125 8.234375zm21.353012 0q-6.65625 0 -10.375 -3.765625q-3.703125 -3.78125 -3.703125 -9.96875q0 -5.515625 2.171875 -9.65625q2.1875 -4.15625 5.65625 -6.390625q3.46875 -2.25 7.265625 -2.25q3.75 0 5.8125 2.21875q2.078125 2.203125 2.078125 5.671875q0 2.859375 -1.265625 4.828125q-1.25 1.96875 -3.28125 1.96875q-1.296875 0 -2.078125 -0.609375q-0.78125 -0.609375 -0.78125 -1.703125q0 -0.46875 0.125 -1.078125q0.140625 -0.625 0.21875 -0.890625q0.328125 -1.015625 0.328125 -1.90625q0 -0.890625 -0.4375 -1.359375q-0.4375 -0.484375 -1.25 -0.484375q-1.578125 0 -2.9375 1.40625q-1.359375 1.390625 -2.171875 3.78125q-0.8125 2.375 -0.8125 5.21875q0 7.890625 6.875 7.890625q2.78125 0 6.0 -1.859375q3.234375 -1.875 6.375 -5.625q0.8125 -0.9375 1.828125 -0.9375q0.890625 0 1.390625 0.8125q0.515625 0.8125 0.515625 2.234375q0 2.59375 -1.296875 4.21875q-3.1875 3.953125 -7.640625 6.09375q-4.453125 2.140625 -8.609375 2.140625zm39.570908 0q-8.078125 0 -14.0625 -2.953125q-5.984375 -2.96875 -9.1875 -8.40625q-3.1875 -5.4375 -3.1875 -12.640625q0 -10.0 3.765625 -17.75q3.78125 -7.75 10.234375 -12.0q6.453125 -4.265625 14.34375 -4.265625q7.34375 0 11.15625 3.78125q3.8125 3.78125 3.8125 9.96875q0 4.140625 -1.46875 6.65625q-1.453125 2.515625 -4.171875 2.515625q-1.90625 0 -3.0 -0.875q-1.09375 -0.890625 -1.09375 -2.59375q0 -0.609375 0.28125 -2.234375q0.40625 -2.046875 0.40625 -3.265625q0 -6.1875 -6.59375 -6.1875q-4.484375 0 -8.578125 2.921875q-4.078125 2.921875 -6.59375 8.609375q-2.515625 5.671875 -2.515625 13.484375q0 8.15625 4.546875 12.625q4.5625 4.453125 13.484375 4.453125q4.40625 0 8.921875 -1.125q4.53125 -1.125 10.046875 -3.4375q1.015625 -0.40625 1.703125 -0.40625q1.078125 0 1.625 0.8125q0.546875 0.8125 0.546875 2.109375q0 4.140625 -4.484375 6.125q-4.828125 2.109375 -10.03125 3.09375q-5.203125 0.984375 -9.90625 0.984375zm53.10869 -21.21875q0.890625 0 1.359375 0.890625q0.484375 0.875 0.484375 2.234375q0 3.265625 -1.96875 3.875q-4.078125 1.4375 -8.984375 1.640625q-1.28125 5.703125 -5.09375 9.140625q-3.8125 3.4375 -8.640625 3.4375q-4.078125 0 -6.96875 -1.96875q-2.890625 -1.984375 -4.390625 -5.234375q-1.484375 -3.265625 -1.484375 -7.078125q0 -5.171875 1.96875 -9.21875q1.96875 -4.046875 5.4375 -6.3125q3.46875 -2.28125 7.6875 -2.28125q5.171875 0 8.328125 3.578125q3.15625 3.5625 3.703125 8.796875q3.203125 -0.203125 7.609375 -1.359375q0.546875 -0.140625 0.953125 -0.140625zm-22.296875 14.0q2.171875 0 3.765625 -1.765625q1.609375 -1.765625 2.15625 -5.09375q-2.109375 -1.421875 -3.234375 -3.734375q-1.125 -2.3125 -1.125 -4.90625q0 -1.078125 0.203125 -2.171875l-0.34375 0q-2.71875 0 -4.515625 2.625q-1.796875 2.609375 -1.796875 7.375q0 3.734375 1.453125 5.703125q1.46875 1.96875 3.4375 1.96875zm44.058655 -8.28125q0.890625 0 1.390625 0.8125q0.515625 0.8125 0.515625 2.234375q0 2.71875 -1.296875 4.21875q-2.921875 3.609375 -6.359375 5.921875q-3.421875 2.3125 -7.78125 2.3125q-5.984375 0 -8.875 -5.4375q-2.890625 -5.453125 -2.890625 -14.078125q0 -8.296875 2.140625 -18.90625q2.15625 -10.609375 6.328125 -18.21875q4.1875 -7.625 9.96875 -7.625q3.265625 0 5.125 3.03125q1.875 3.015625 1.875 8.671875q0 8.09375 -4.484375 18.765625q-4.484375 10.671875 -12.171875 21.140625q0.46875 2.796875 1.546875 3.984375q1.09375 1.1875 2.875 1.1875q2.78125 0 4.890625 -1.59375q2.109375 -1.609375 5.375 -5.484375q0.8125 -0.9375 1.828125 -0.9375zm-8.359375 -42.03125q-1.5625 0 -3.546875 5.640625q-1.96875 5.640625 -3.46875 14.015625q-1.484375 8.359375 -1.625 16.046875q4.828125 -7.953125 7.6875 -15.9375q2.859375 -8.0 2.859375 -14.59375q0 -5.171875 -1.90625 -5.171875zm11.69928 57.53125q-3.0625 0 -5.0 -2.8125q-1.9375 -2.828125 -1.9375 -7.046875q0 -5.109375 0.671875 -9.359375q0.6875 -4.25 2.25 -9.0q0.6875 -2.046875 1.90625 -2.921875q1.21875 -0.890625 3.875 -0.890625q1.5 0 2.078125 0.484375q0.578125 0.46875 0.578125 1.421875q0 0.546875 -0.75 3.671875q-0.6875 2.515625 -1.09375 4.546875q-1.359375 7.140625 -1.359375 9.53125q0 1.421875 0.34375 2.0q0.34375 0.578125 1.09375 0.578125q1.015625 0 2.546875 -2.03125q1.53125 -2.046875 3.265625 -6.1875q1.734375 -4.15625 3.359375 -10.203125q0.546875 -2.046875 1.65625 -2.921875q1.125 -0.890625 3.375 -0.890625q1.5625 0 2.171875 0.375q0.625 0.375 0.625 1.390625q0 1.703125 -1.703125 9.3125q-1.90625 8.703125 -1.90625 10.75q0 1.296875 0.546875 2.015625q0.546875 0.703125 1.421875 0.703125q1.359375 0 3.21875 -1.65625q1.875 -1.671875 5.015625 -5.421875q0.8125 -0.9375 1.828125 -0.9375q0.890625 0 1.390625 0.8125q0.515625 0.8125 0.515625 2.234375q0 2.71875 -1.296875 4.21875q-2.921875 3.609375 -6.296875 5.921875q-3.359375 2.3125 -7.640625 2.3125q-3.265625 0 -4.796875 -2.515625q-1.53125 -2.515625 -1.53125 -7.078125q-1.15625 4.625 -3.46875 7.109375q-2.296875 2.484375 -4.953125 2.484375zm29.306671 0q-2.578125 0 -3.640625 -2.71875q-1.046875 -2.71875 -1.046875 -8.703125q0 -8.84375 2.515625 -16.796875q0.609375 -1.984375 2.0 -2.890625q1.390625 -0.921875 3.90625 -0.921875q1.359375 0 1.90625 0.34375q0.546875 0.328125 0.546875 1.28125q0 1.09375 -1.015625 4.90625q-0.6875 2.71875 -1.09375 4.734375q-0.40625 2.0 -0.6875 4.984375q1.84375 -5.296875 4.390625 -8.96875q2.546875 -3.671875 5.234375 -5.46875q2.6875 -1.8125 5.078125 -1.8125q2.375 0 3.359375 1.09375q0.984375 1.078125 0.984375 3.328125q0 2.171875 -1.296875 7.890625q-0.53125 2.4375 -0.75 3.671875q3.40625 -8.375 7.546875 -12.171875q4.15625 -3.8125 7.765625 -3.8125q4.421875 0 4.421875 4.421875q0 2.65625 -1.5 9.578125q-1.296875 5.921875 -1.296875 7.828125q0 2.71875 1.96875 2.71875q1.359375 0 3.234375 -1.65625q1.875 -1.671875 5.0 -5.421875q0.8125 -0.9375 1.828125 -0.9375q0.890625 0 1.390625 0.8125q0.515625 0.8125 0.515625 2.234375q0 2.71875 -1.28125 4.21875q-2.9375 3.609375 -6.296875 5.921875q-3.359375 2.3125 -7.65625 2.3125q-3.46875 0 -5.234375 -2.0q-1.765625 -2.015625 -1.765625 -5.828125q0 -1.90625 0.953125 -6.796875q0.890625 -4.28125 0.890625 -5.921875q0 -1.078125 -0.75 -1.078125q-0.890625 0 -2.53125 2.28125q-1.625 2.265625 -3.265625 6.015625q-1.625 3.734375 -2.640625 7.890625q-0.75 3.25 -1.734375 4.34375q-0.984375 1.09375 -3.15625 1.09375q-2.25 0 -3.375 -2.140625q-1.109375 -2.140625 -1.109375 -5.203125q0 -2.59375 0.671875 -7.484375q0.546875 -4.359375 0.546875 -5.71875q0 -1.078125 -0.75 -1.078125q-1.015625 0 -2.578125 2.453125q-1.5625 2.4375 -3.03125 6.25q-1.46875 3.8125 -2.34375 7.484375q-0.75 3.1875 -1.734375 4.3125q-0.984375 1.125 -3.09375 1.125zm50.59204 0q-2.578125 0 -3.640625 -2.71875q-1.046875 -2.71875 -1.046875 -8.703125q0 -8.84375 2.515625 -16.796875q0.609375 -1.984375 2.0 -2.890625q1.390625 -0.921875 3.90625 -0.921875q1.359375 0 1.90625 0.34375q0.546875 0.328125 0.546875 1.28125q0 1.09375 -1.015625 4.90625q-0.6875 2.71875 -1.09375 4.765625q-0.40625 2.03125 -0.6875 5.015625q2.25 -5.84375 5.03125 -9.515625q2.796875 -3.671875 5.484375 -5.234375q2.6875 -1.5625 4.921875 -1.5625q2.1875 0 3.296875 1.125q1.125 1.125 1.125 3.296875q0 1.765625 -0.75 6.65625q-0.671875 4.15625 -1.078125 7.859375q-0.40625 3.703125 -0.40625 8.265625q0 2.578125 -1.0625 3.703125q-1.046875 1.125 -3.4375 1.125q-2.234375 0 -3.265625 -1.15625q-1.015625 -1.15625 -1.015625 -3.46875q0 -2.71875 0.953125 -8.984375q0.8125 -5.4375 0.8125 -6.9375q0 -1.078125 -0.734375 -1.078125q-0.890625 0 -2.5 2.28125q-1.59375 2.265625 -3.265625 6.015625q-1.65625 3.734375 -2.671875 7.890625q-0.75 3.1875 -1.734375 4.3125q-0.984375 1.125 -3.09375 1.125zm35.365173 5.984375q-5.984375 0 -5.984375 -5.109375q0 -0.40625 0.125 -1.484375q2.921875 -23.875 7.6875 -56.921875q0.546875 -3.46875 2.109375 -4.75q1.5625 -1.296875 5.5 -1.296875l9.53125 0q2.3125 0 3.328125 0.984375q1.015625 0.984375 1.015625 2.609375q0 2.3125 -1.0625 3.34375q-1.046875 1.015625 -3.421875 1.015625l-8.15625 0q-0.6875 5.78125 -1.8125 13.9375q-1.109375 8.15625 -1.59375 11.96875q-2.71875 18.96875 -3.59375 27.75l7.140625 0q2.640625 0 3.796875 0.84375q1.15625 0.84375 1.15625 2.75q0 2.109375 -1.21875 3.265625q-1.21875 1.15625 -4.078125 1.15625l-10.46875 -0.0625zm74.180664 -62.765625q2.109375 0.40625 3.15625 1.4375q1.0625 1.015625 1.0625 2.375q0 2.234375 -1.265625 3.265625q-1.25 1.015625 -3.96875 0.8125q-6.125 -0.484375 -9.5625 -0.65625q-3.421875 -0.171875 -9.0 -0.234375q-2.515625 12.515625 -4.625 25.15625q-0.75 4.625 -1.578125 10.71875q-0.8125 6.078125 -1.078125 9.828125q-0.140625 1.96875 -1.640625 3.03125q-1.484375 1.046875 -3.59375 1.046875q-2.25 0 -3.46875 -1.09375q-1.21875 -1.09375 -1.21875 -2.859375q0 -1.625 0.5 -5.390625q0.515625 -3.78125 1.1875 -7.9375q0.75 -4.140625 1.15625 -7.203125q0.75 -5.171875 1.703125 -10.265625q0.953125 -5.109375 1.90625 -9.65625q0.203125 -1.015625 0.46875 -2.34375q0.28125 -1.328125 0.625 -2.96875q-6.671875 0.21875 -10.484375 1.109375q-3.796875 0.875 -5.40625 2.46875q-1.59375 1.59375 -1.59375 4.109375q0 2.3125 1.359375 4.421875q0.28125 0.484375 0.28125 1.015625q0 1.296875 -1.53125 2.421875q-1.53125 1.125 -3.171875 1.125q-1.15625 0 -1.890625 -0.6875q-1.375 -1.15625 -2.265625 -3.296875q-0.875 -2.140625 -0.875 -4.859375q0 -5.78125 3.765625 -9.28125q3.78125 -3.5 11.5 -5.125q7.71875 -1.640625 19.828125 -1.640625q7.484375 0 11.9375 0.28125q4.453125 0.265625 7.78125 0.875zm1.5023193 62.828125q-2.3125 0 -3.328125 -0.984375q-1.03125 -0.984375 -1.03125 -2.625q0 -2.3125 1.0625 -3.328125q1.046875 -1.015625 3.421875 -1.015625l8.171875 0q0.671875 -5.78125 1.796875 -13.9375q1.125 -8.15625 1.59375 -11.96875q2.71875 -18.96875 3.609375 -27.75l-7.140625 0q-2.65625 0 -3.8125 -0.84375q-1.15625 -0.859375 -1.15625 -2.75q0 -2.109375 1.21875 -3.265625q1.234375 -1.15625 4.09375 -1.15625l10.46875 0.0625q5.984375 0 5.984375 5.09375q0 0.40625 -0.140625 1.5q-2.921875 23.875 -7.6875 56.921875q-0.53125 3.46875 -2.109375 4.75q-1.5625 1.296875 -5.5 1.296875l-9.515625 0z" fill-rule="nonzero"/></g></svg>
